<?xml version="1.0" encoding="utf-8"?>
<!-- Generator: Adobe Illustrator 16.0.0, SVG Export Plug-In . SVG Version: 6.00 Build 0)  -->
<!DOCTYPE svg PUBLIC "-//W3C//DTD SVG 1.1//EN" "http://www.w3.org/Graphics/SVG/1.1/DTD/svg11.dtd">
<svg version="1.1" id="Layer_1" xmlns="http://www.w3.org/2000/svg" xmlns:xlink="http://www.w3.org/1999/xlink" x="0px" y="0px"
	 width="500px" height="500px" viewBox="0 0 500 500" enable-background="new 0 0 500 500" xml:space="preserve">
<g>
	<path fill="#27AB87" d="M220.68,382.271c-19.852-5.414-37.171-17.699-50.348-37.303v-91.443
		c18.383-27.339,44.787-41.007,74.948-41.007c6.138,0,12.073,0.679,17.795,1.93l-10.766-14.6l-5.632-7.629l9.439-0.82l24.48-2.13
		c-9.997-2.919-20.57-4.561-31.55-4.561c-32.045,0-58.915,11.309-78.716,30.167V73.465h-32.045v334.668h32.045v-24.51
		c14.483,13.789,32.785,23.482,54.085,27.73l1.954,15.182l46.833-34.775L219.1,369.959L220.68,382.271z"/>
	<path fill="#27AB87" d="M314.496,205.864l5.621-12.457l-58.115,5.059l34.639,46.934l4.861-10.791
		c17.369,16.01,28.156,39.19,28.156,64.638c0,38.604-25.199,72.299-60.83,82.807l20.631,8.32l-30.88,22.93
		c58.146-4.852,103.134-53.689,103.134-114.057C361.713,260.508,343.118,226.557,314.496,205.864z"/>
</g>
</svg>
